<svg width="24" height="24" viewBox="0 0 24 24" fill="none" xmlns="http://www.w3.org/2000/svg">
<g clip-path="url(#clip0_208_20)">
<rect width="24" height="24" rx="4" fill="#FFCFCF"/>
<path d="M9.49441 28.0377C5.78734 30.178 2.22529 31.0864 -1.19174 30.763C-4.59644 30.3936 -7.36997 28.5894 -9.51234 25.3506L0.820745 19.3848C1.9947 21.0811 3.29682 21.5163 4.72711 20.6906C5.25252 20.3872 5.62295 20.0177 5.8384 19.5819C6.06619 19.1001 6.02842 18.5965 5.72507 18.0711C5.30376 17.3414 4.57265 16.9851 3.53174 17.0023C2.47398 16.9903 0.944676 17.1727 -1.05618 17.5495C-3.44553 17.9949 -5.49077 18.2611 -7.19191 18.3481C-8.86385 18.4183 -10.5376 18.0808 -12.2132 17.3358C-13.8888 16.5907 -15.2934 15.2027 -16.427 13.1718C-17.5898 11.1577 -18.0649 9.1552 -17.8522 7.16427C-17.6271 5.12729 -16.835 3.22993 -15.4758 1.47218C-14.0873 -0.302414 -12.2693 -1.83854 -10.0217 -3.13619C-6.22708 -5.32702 -2.71498 -6.18715 0.514577 -5.71657C3.77332 -5.26285 6.37954 -3.47887 8.33323 -0.36462L-2.13121 5.67703C-2.66598 4.81819 -3.24723 4.31701 -3.87497 4.17349C-4.5027 4.02996 -5.10847 4.12672 -5.69226 4.46377C-6.10091 4.69971 -6.35233 5.03946 -6.4465 5.48303C-6.55754 5.89741 -6.46981 6.35271 -6.18331 6.84893C-5.77885 7.54948 -5.06234 7.91418 -4.03377 7.94305C-2.99286 7.92587 -1.44054 7.74964 0.623212 7.41436C3.00022 7.01498 5.01011 6.78864 6.65287 6.73533C8.32482 6.66518 9.9733 6.95885 11.5983 7.61633C13.2233 8.27382 14.5583 9.50744 15.6031 11.3172C16.6986 13.2145 17.2174 15.1917 17.1597 17.2489C17.0851 19.2768 16.4019 21.228 15.11 23.1025C13.8182 24.977 11.9463 26.6221 9.49441 28.0377Z" fill="#F14646" fill-opacity="0.8"/>
</g>
<defs>
<clipPath id="clip0_208_20">
<rect width="24" height="24" rx="4" fill="white"/>
</clipPath>
</defs>
</svg>
